<mxfile host="app.diagrams.net" modified="2021-04-13T15:35:51.373Z" agent="5.0 (Windows NT 10.0; Win64; x64) AppleWebKit/537.36 (KHTML, like Gecko) Chrome/89.0.4389.114 Safari/537.36" etag="eDTl4yJiNBAFdGbEumjL" version="14.6.0" type="github">
  <diagram id="NguJd8cHhLk-KeVRu3VD" name="Page-1">
    <mxGraphModel dx="4124" dy="2320" grid="1" gridSize="1" guides="1" tooltips="1" connect="1" arrows="1" fold="1" page="1" pageScale="1" pageWidth="1600" pageHeight="1200" background="none" math="0" shadow="0">
      <root>
        <mxCell id="0" />
        <mxCell id="1" parent="0" />
        <mxCell id="gQa1YiFPbENMqjMN9udA-1" value="" style="endArrow=none;html=1;" edge="1" parent="1">
          <mxGeometry width="50" height="50" relative="1" as="geometry">
            <mxPoint x="40" y="999" as="sourcePoint" />
            <mxPoint x="40" y="100" as="targetPoint" />
          </mxGeometry>
        </mxCell>
        <mxCell id="gQa1YiFPbENMqjMN9udA-2" value="" style="endArrow=none;html=1;" edge="1" parent="1">
          <mxGeometry width="50" height="50" relative="1" as="geometry">
            <mxPoint x="40" y="999" as="sourcePoint" />
            <mxPoint x="419" y="999" as="targetPoint" />
          </mxGeometry>
        </mxCell>
        <mxCell id="gQa1YiFPbENMqjMN9udA-114" value="" style="endArrow=none;html=1;" edge="1" parent="1">
          <mxGeometry width="50" height="50" relative="1" as="geometry">
            <mxPoint x="419" y="999" as="sourcePoint" />
            <mxPoint x="419" y="969" as="targetPoint" />
          </mxGeometry>
        </mxCell>
        <mxCell id="gQa1YiFPbENMqjMN9udA-115" value="" style="endArrow=none;html=1;" edge="1" parent="1">
          <mxGeometry width="50" height="50" relative="1" as="geometry">
            <mxPoint x="419" y="969" as="sourcePoint" />
            <mxPoint x="699" y="969" as="targetPoint" />
          </mxGeometry>
        </mxCell>
        <mxCell id="gQa1YiFPbENMqjMN9udA-116" value="" style="endArrow=none;html=1;" edge="1" parent="1">
          <mxGeometry width="50" height="50" relative="1" as="geometry">
            <mxPoint x="699" y="969" as="sourcePoint" />
            <mxPoint x="699" y="999" as="targetPoint" />
          </mxGeometry>
        </mxCell>
        <mxCell id="gQa1YiFPbENMqjMN9udA-117" value="" style="endArrow=none;html=1;" edge="1" parent="1">
          <mxGeometry width="50" height="50" relative="1" as="geometry">
            <mxPoint x="699" y="999" as="sourcePoint" />
            <mxPoint x="1049" y="999" as="targetPoint" />
          </mxGeometry>
        </mxCell>
        <mxCell id="gQa1YiFPbENMqjMN9udA-118" value="" style="endArrow=none;html=1;" edge="1" parent="1">
          <mxGeometry width="50" height="50" relative="1" as="geometry">
            <mxPoint x="1049" y="999" as="sourcePoint" />
            <mxPoint x="1049" y="374" as="targetPoint" />
          </mxGeometry>
        </mxCell>
        <mxCell id="gQa1YiFPbENMqjMN9udA-119" value="" style="endArrow=none;html=1;" edge="1" parent="1">
          <mxGeometry width="50" height="50" relative="1" as="geometry">
            <mxPoint x="1049" y="374" as="sourcePoint" />
            <mxPoint x="854.6" y="374" as="targetPoint" />
          </mxGeometry>
        </mxCell>
        <mxCell id="gQa1YiFPbENMqjMN9udA-120" value="" style="endArrow=none;html=1;" edge="1" parent="1">
          <mxGeometry width="50" height="50" relative="1" as="geometry">
            <mxPoint x="854.6" y="374" as="sourcePoint" />
            <mxPoint x="854.6" y="159" as="targetPoint" />
          </mxGeometry>
        </mxCell>
        <mxCell id="gQa1YiFPbENMqjMN9udA-121" value="" style="endArrow=none;html=1;" edge="1" parent="1">
          <mxGeometry width="50" height="50" relative="1" as="geometry">
            <mxPoint x="854.6" y="159" as="sourcePoint" />
            <mxPoint x="594.6" y="159" as="targetPoint" />
          </mxGeometry>
        </mxCell>
      </root>
    </mxGraphModel>
  </diagram>
</mxfile>
